<?xml version="1.0" standalone="no"?>
<!DOCTYPE svg PUBLIC "-//W3C//DTD SVG 20010904//EN"
 "http://www.w3.org/TR/2001/REC-SVG-20010904/DTD/svg10.dtd">
<svg version="1.0"
    xmlns="http://www.w3.org/2000/svg" width="278.000000pt" height="150.000000pt" viewBox="0 0 278.000000 150.000000" preserveAspectRatio="xMidYMid meet">

    <g transform="translate(0.000000,150.000000) scale(0.100000,-0.100000)" fill="#f7c59f" stroke="none">
        <path d="M24 1458 c14 -24 63 -108 109 -188 l83 -145 112 -3 112 -3 -46 78
c-25 43 -50 86 -55 95 -9 17 4 18 211 18 l220 0 0 -572 0 -571 47 -84 c25 -45
48 -82 49 -80 1 1 188 324 414 717 227 393 421 730 432 748 l20 32 -867 0
-866 0 25 -42z m1365 -170 c-7 -13 -76 -133 -154 -268 -78 -135 -172 -297
-209 -360 l-66 -115 0 383 0 382 220 0 221 0 -12 -22z"/>
    </g>
    <g transform="translate(0.000000,150.000000) scale(0.100000,-0.100000)" fill="white" stroke="none">
        <path d="M1509 797 c-222 -385 -417 -723 -432 -749 l-28 -49 112 3 112 3 121
211 c66 117 189 329 271 471 l150 260 3 -473 2 -474 481 0 480 0 -25 43 c-14
23 -63 107 -109 187 l-83 145 -112 3 -112 3 46 -78 c25 -43 50 -86 55 -95 9
-17 -4 -18 -211 -18 l-220 0 0 572 0 571 -37 66 c-20 36 -41 74 -48 83 -9 14
-76 -96 -416 -685z"/>
    </g>
</svg>
